<svg width="256" height="256" viewBox="0 0 256 256" fill="none" xmlns="http://www.w3.org/2000/svg">
<rect width="256" height="256" fill="#793FDF"/>
<path d="M17.3242 133.178C16.1914 133.178 15.2002 133.112 14.3506 132.979C13.4821 132.866 12.7458 132.725 12.1416 132.555V125.248C12.7458 125.38 13.3971 125.503 14.0957 125.616C14.7754 125.748 15.5023 125.814 16.2764 125.814C17.2959 125.814 18.2116 125.616 19.0234 125.22C19.8353 124.842 20.4772 124.115 20.9492 123.039C21.4212 121.963 21.6572 120.415 21.6572 118.395V79.5957H30.4365V118.338C30.4365 121.887 29.8796 124.748 28.7656 126.919C27.6706 129.109 26.1318 130.695 24.1494 131.677C22.1859 132.677 19.9108 133.178 17.3242 133.178ZM48.8164 89.3379V121H40.1787V89.3379H48.8164ZM44.5117 76.9336C45.7956 76.9336 46.9001 77.2357 47.8252 77.8398C48.7503 78.4251 49.2129 79.5296 49.2129 81.1533C49.2129 82.7581 48.7503 83.8721 47.8252 84.4951C46.9001 85.0993 45.7956 85.4014 44.5117 85.4014C43.209 85.4014 42.0951 85.0993 41.1699 84.4951C40.2637 83.8721 39.8105 82.7581 39.8105 81.1533C39.8105 79.5296 40.2637 78.4251 41.1699 77.8398C42.0951 77.2357 43.209 76.9336 44.5117 76.9336ZM75.8906 88.7432C79.2702 88.7432 81.9889 89.6683 84.0469 91.5186C86.1048 93.3499 87.1338 96.2952 87.1338 100.354V121H78.4961V102.507C78.4961 100.241 78.0807 98.5326 77.25 97.3809C76.4382 96.2292 75.1543 95.6533 73.3984 95.6533C70.7552 95.6533 68.9521 96.5501 67.9893 98.3438C67.0264 100.137 66.5449 102.724 66.5449 106.104V121H57.9072V89.3379H64.5059L65.667 93.3877H66.1484C66.8281 92.2926 67.6683 91.4053 68.6689 90.7256C69.6885 90.0459 70.8118 89.5456 72.0391 89.2246C73.2852 88.9036 74.569 88.7432 75.8906 88.7432ZM118.116 111.598C118.116 113.75 117.606 115.572 116.587 117.063C115.586 118.536 114.085 119.66 112.084 120.434C110.083 121.189 107.59 121.566 104.607 121.566C102.398 121.566 100.501 121.425 98.915 121.142C97.348 120.858 95.762 120.386 94.1572 119.726V112.589C95.8753 113.363 97.7161 114.005 99.6797 114.515C101.662 115.006 103.399 115.251 104.891 115.251C106.571 115.251 107.77 115.006 108.487 114.515C109.224 114.005 109.592 113.344 109.592 112.532C109.592 112.004 109.441 111.532 109.139 111.116C108.855 110.682 108.232 110.201 107.27 109.672C106.307 109.124 104.796 108.416 102.738 107.548C100.756 106.717 99.1227 105.877 97.8389 105.027C96.5739 104.178 95.6299 103.177 95.0068 102.025C94.4027 100.855 94.1006 99.3727 94.1006 97.5791C94.1006 94.6527 95.2334 92.4531 97.499 90.9805C99.7835 89.4889 102.833 88.7432 106.646 88.7432C108.61 88.7432 110.479 88.9414 112.254 89.3379C114.048 89.7344 115.888 90.3669 117.776 91.2354L115.171 97.4658C113.604 96.7861 112.122 96.2292 110.725 95.7949C109.346 95.3607 107.94 95.1436 106.505 95.1436C105.24 95.1436 104.286 95.3135 103.645 95.6533C103.003 95.9932 102.682 96.5124 102.682 97.2109C102.682 97.7207 102.842 98.1738 103.163 98.5703C103.503 98.9668 104.145 99.4105 105.089 99.9014C106.052 100.373 107.458 100.987 109.309 101.742C111.102 102.479 112.66 103.253 113.981 104.064C115.303 104.857 116.323 105.849 117.04 107.038C117.757 108.209 118.116 109.729 118.116 111.598ZM159.464 121H150.713V103.13H134.315V121H125.536V79.5957H134.315V95.8232H150.713V79.5957H159.464V121ZM198.319 89.3379V121H191.692L190.531 116.95H190.078C189.398 118.026 188.549 118.904 187.529 119.584C186.51 120.264 185.386 120.764 184.159 121.085C182.932 121.406 181.658 121.566 180.336 121.566C178.07 121.566 176.097 121.17 174.417 120.377C172.737 119.565 171.424 118.31 170.48 116.61C169.555 114.911 169.093 112.702 169.093 109.983V89.3379H177.73V107.831C177.73 110.097 178.136 111.805 178.948 112.957C179.76 114.109 181.053 114.685 182.828 114.685C184.584 114.685 185.962 114.288 186.963 113.495C187.964 112.683 188.662 111.503 189.059 109.955C189.474 108.388 189.682 106.481 189.682 104.234V89.3379H198.319ZM216.02 76.9336V87.1855C216.02 88.375 215.982 89.555 215.906 90.7256C215.85 91.8962 215.774 92.8024 215.68 93.4443H216.02C216.85 92.1416 217.983 91.0371 219.418 90.1309C220.853 89.2057 222.713 88.7432 224.997 88.7432C228.547 88.7432 231.426 90.1309 233.635 92.9062C235.844 95.6816 236.948 99.7503 236.948 105.112C236.948 108.718 236.438 111.749 235.419 114.203C234.399 116.639 232.974 118.479 231.143 119.726C229.311 120.953 227.187 121.566 224.771 121.566C222.448 121.566 220.617 121.151 219.276 120.32C217.936 119.49 216.85 118.555 216.02 117.517H215.425L213.98 121H207.382V76.9336H216.02ZM222.222 95.6533C220.711 95.6533 219.512 95.9648 218.625 96.5879C217.738 97.2109 217.086 98.1455 216.671 99.3916C216.274 100.638 216.057 102.214 216.02 104.121V105.056C216.02 108.133 216.473 110.493 217.379 112.136C218.285 113.759 219.937 114.571 222.335 114.571C224.11 114.571 225.516 113.75 226.555 112.107C227.612 110.465 228.141 108.095 228.141 104.999C228.141 101.903 227.612 99.571 226.555 98.0039C225.497 96.4368 224.053 95.6533 222.222 95.6533Z" fill="white"/>
<path d="M127.99 185V153.704H138.502C140.678 153.704 142.63 153.944 144.358 154.424C146.086 154.872 147.446 155.656 148.438 156.776C149.462 157.896 149.974 159.464 149.974 161.48C149.974 162.888 149.542 164.248 148.677 165.56C147.814 166.872 146.454 167.768 144.598 168.248V168.44C146.838 168.824 148.534 169.624 149.686 170.84C150.838 172.024 151.414 173.672 151.414 175.784C151.414 177.896 150.886 179.64 149.83 181.016C148.774 182.36 147.334 183.368 145.51 184.04C143.718 184.68 141.686 185 139.414 185H127.99ZM135.046 166.28H138.166C139.894 166.28 141.142 165.944 141.91 165.272C142.678 164.568 143.062 163.624 143.062 162.44C143.062 161.288 142.662 160.472 141.862 159.992C141.094 159.48 139.878 159.224 138.214 159.224H135.046V166.28ZM135.046 179.48H138.838C140.758 179.48 142.182 179.128 143.11 178.424C144.038 177.72 144.502 176.664 144.502 175.256C144.502 173.88 144.038 172.888 143.11 172.28C142.182 171.672 140.758 171.368 138.838 171.368H135.046V179.48ZM172.179 185.576C169.203 185.576 166.947 184.68 165.411 182.888C163.875 181.096 163.107 178.696 163.107 175.688V156.92H155.667V151.4H170.163V175.976C170.163 177.448 170.563 178.472 171.363 179.048C172.163 179.592 173.043 179.864 174.003 179.864C174.579 179.864 175.155 179.8 175.731 179.672C176.339 179.544 177.011 179.352 177.747 179.096L179.283 184.28C178.067 184.664 176.947 184.968 175.923 185.192C174.931 185.448 173.683 185.576 172.179 185.576ZM196.4 185.576C194.32 185.576 192.352 185.096 190.496 184.136C188.64 183.144 187.136 181.72 185.984 179.864C184.832 177.976 184.256 175.72 184.256 173.096C184.256 170.472 184.832 168.232 185.984 166.376C187.136 164.488 188.64 163.064 190.496 162.104C192.352 161.112 194.32 160.616 196.4 160.616C198.48 160.616 200.448 161.112 202.304 162.104C204.16 163.064 205.664 164.488 206.816 166.376C207.968 168.232 208.544 170.472 208.544 173.096C208.544 175.72 207.968 177.976 206.816 179.864C205.664 181.72 204.16 183.144 202.304 184.136C200.448 185.096 198.48 185.576 196.4 185.576ZM196.4 179.864C197.488 179.864 198.384 179.592 199.088 179.048C199.824 178.504 200.368 177.72 200.72 176.696C201.104 175.672 201.296 174.472 201.296 173.096C201.296 171.72 201.104 170.52 200.72 169.496C200.368 168.472 199.824 167.688 199.088 167.144C198.384 166.6 197.488 166.328 196.4 166.328C195.312 166.328 194.4 166.6 193.664 167.144C192.96 167.688 192.416 168.472 192.032 169.496C191.68 170.52 191.504 171.72 191.504 173.096C191.504 174.472 191.68 175.672 192.032 176.696C192.416 177.72 192.96 178.504 193.664 179.048C194.4 179.592 195.312 179.864 196.4 179.864ZM224.077 195.128C221.997 195.128 220.141 194.904 218.509 194.456C216.909 194.04 215.629 193.384 214.669 192.488C213.741 191.592 213.277 190.44 213.277 189.032C213.277 188.072 213.581 187.192 214.189 186.392C214.829 185.592 215.757 184.888 216.973 184.28V184.088C216.301 183.64 215.725 183.096 215.245 182.456C214.797 181.816 214.573 181 214.573 180.008C214.573 179.208 214.829 178.408 215.341 177.608C215.885 176.808 216.573 176.12 217.405 175.544V175.352C216.541 174.776 215.805 173.96 215.197 172.904C214.589 171.848 214.285 170.632 214.285 169.256C214.285 167.336 214.749 165.736 215.677 164.456C216.637 163.176 217.885 162.216 219.421 161.576C220.989 160.936 222.669 160.616 224.461 160.616C225.933 160.616 227.245 160.808 228.397 161.192H238.045V166.376H233.245C233.533 166.728 233.773 167.192 233.965 167.768C234.189 168.312 234.301 168.888 234.301 169.496C234.301 171.32 233.853 172.824 232.957 174.008C232.093 175.16 230.925 176.024 229.453 176.6C227.981 177.176 226.317 177.464 224.461 177.464C224.013 177.464 223.501 177.432 222.925 177.368C222.349 177.272 221.773 177.144 221.197 176.984C220.813 177.24 220.541 177.496 220.381 177.752C220.221 178.008 220.141 178.344 220.141 178.76C220.141 179.368 220.461 179.816 221.101 180.104C221.773 180.392 222.797 180.536 224.173 180.536H228.589C231.725 180.536 234.109 181 235.741 181.928C237.405 182.856 238.237 184.392 238.237 186.536C238.237 188.2 237.661 189.672 236.509 190.952C235.357 192.264 233.709 193.288 231.565 194.024C229.453 194.76 226.957 195.128 224.077 195.128ZM224.461 173.192C225.133 173.192 225.741 173.048 226.285 172.76C226.829 172.472 227.261 172.04 227.581 171.464C227.901 170.856 228.061 170.12 228.061 169.256C228.061 168.424 227.901 167.72 227.581 167.144C227.261 166.568 226.829 166.136 226.285 165.848C225.741 165.528 225.133 165.368 224.461 165.368C223.821 165.368 223.229 165.528 222.685 165.848C222.141 166.136 221.709 166.568 221.389 167.144C221.069 167.72 220.909 168.424 220.909 169.256C220.909 170.12 221.069 170.856 221.389 171.464C221.709 172.04 222.141 172.472 222.685 172.76C223.229 173.048 223.821 173.192 224.461 173.192ZM225.085 190.664C226.365 190.664 227.485 190.536 228.445 190.28C229.405 190.024 230.157 189.672 230.701 189.224C231.245 188.808 231.517 188.328 231.517 187.784C231.517 186.984 231.165 186.472 230.461 186.248C229.757 186.056 228.717 185.96 227.341 185.96H224.365C223.501 185.96 222.781 185.928 222.205 185.864C221.661 185.8 221.165 185.72 220.717 185.624C220.109 186.008 219.677 186.376 219.421 186.728C219.165 187.112 219.037 187.528 219.037 187.976C219.037 188.84 219.581 189.496 220.669 189.944C221.757 190.424 223.229 190.664 225.085 190.664Z" fill="white"/>
</svg>
